<svg width="512" height="512" viewBox="0 0 512 512" fill="none" xmlns="http://www.w3.org/2000/svg">
<rect width="512" height="512" rx="96" fill="white"/>
<circle cx="256" cy="256" r="224" fill="#460809"/>
<mask id="mask0_384_8" style="mask-type:alpha" maskUnits="userSpaceOnUse" x="32" y="32" width="448" height="448">
<circle cx="256" cy="256" r="224" fill="#D9D9D9"/>
</mask>
<g mask="url(#mask0_384_8)">
<g filter="url(#filter0_f_384_8)">
<path d="M274.944 239.686C255.791 239.686 221.741 428.173 221.741 428.173H701.365C701.365 428.173 487.755 72.0451 437.479 125.265C387.202 178.484 385.34 335.926 354.216 344.795C323.093 353.664 294.097 239.686 274.944 239.686Z" fill="#E7000B"/>
<path d="M95.744 307.325C76.591 307.325 42.5412 495.812 42.5412 495.812H522.165C522.165 495.812 308.555 139.684 258.279 192.904C208.002 246.123 206.14 403.565 175.016 412.434C143.893 421.303 114.897 307.325 95.744 307.325Z" fill="#FF6467"/>
<path opacity="0.55" d="M-68.5226 383.749C-87.6757 383.749 -121.725 572.235 -121.725 572.235H357.898C357.898 572.235 144.289 216.108 94.012 269.327C43.7354 322.547 41.8732 479.989 10.7496 488.858C-20.3741 497.727 -49.3696 383.749 -68.5226 383.749Z" fill="#FB2C36"/>
</g>
</g>
<defs>
<filter id="filter0_f_384_8" x="-241.525" y="0.0431366" width="1062.69" height="691.992" filterUnits="userSpaceOnUse" color-interpolation-filters="sRGB">
<feFlood flood-opacity="0" result="BackgroundImageFix"/>
<feBlend mode="normal" in="SourceGraphic" in2="BackgroundImageFix" result="shape"/>
<feGaussianBlur stdDeviation="59.9" result="effect1_foregroundBlur_384_8"/>
</filter>
</defs>
</svg>
